<?xml version="1.0" encoding="UTF-8" standalone="no"?>
<!DOCTYPE svg PUBLIC "-//W3C//DTD SVG 1.1//EN" "http://www.w3.org/Graphics/SVG/1.1/DTD/svg11.dtd">
<svg width="100%" height="100%" viewBox="0 0 200 200" version="1.1" xmlns="http://www.w3.org/2000/svg" xmlns:xlink="http://www.w3.org/1999/xlink" xml:space="preserve" style="fill-rule:evenodd;clip-rule:evenodd;stroke-linejoin:round;stroke-miterlimit:1.41421;">
    <rect id="Artboard1" x="0" y="0" width="200" height="200" style="fill:none;"/>
    <clipPath id="_clip1">
        <rect id="Artboard11" x="0" y="0" width="200" height="200"/>
    </clipPath>
    <g clip-path="url(#_clip1)">
        <g transform="matrix(1.2002,0,0,1.24045,-21.5282,-18.2199)">
            <ellipse cx="101.252" cy="95.304" rx="72.904" ry="70.539" style="fill:rgb(252,45,102);"/>
        </g>
        <g transform="matrix(1,0,0,1,-220,0)">
            <path d="M406.647,112.219C401.242,150.832 370.597,181.401 331.947,186.689L282.625,137.367C282.651,137.367 291.939,137.323 300.931,133.014C301.697,142.97 306.315,151.043 306.315,151.043C306.315,151.043 314.352,146.359 319.994,138.119C325.635,146.359 333.672,151.043 333.672,151.043C333.672,151.043 338.288,142.973 339.055,133.019C348.062,137.336 357.365,137.373 357.365,137.373C357.365,137.373 357.327,128.071 353.012,119.065C362.969,118.3 371.044,113.681 371.044,113.681C371.044,113.681 366.36,105.645 358.121,100.004C366.36,94.363 371.043,86.327 371.043,86.327C371.043,86.327 362.968,81.709 353.011,80.943C357.31,71.971 357.364,62.705 357.364,62.635L357.365,62.635L406.647,112.219Z" style="fill-opacity:0.0588235;"/>
        </g>
        <g transform="matrix(1,0,0,1,-200,0)">
            <g transform="matrix(1,0,0,1,-1.04648,0.00414425)">
                <g>
                    <g transform="matrix(0.965926,-0.258819,0.258819,0.965926,-29.1539,37.3279)">
                        <path d="M302.722,93.149C302.722,93.149 314.466,104.989 314.466,119.573C314.466,134.157 302.722,145.997 302.722,145.997C302.722,145.997 290.978,134.157 290.978,119.573C290.978,104.989 302.722,93.149 302.722,93.149Z" style="fill:white;fill-opacity:0.670588;"/>
                    </g>
                    <g transform="matrix(-0.965926,-0.258819,-0.258819,0.965926,631.234,37.3279)">
                        <path d="M302.722,93.149C302.722,93.149 314.466,104.989 314.466,119.573C314.466,134.157 302.722,145.997 302.722,145.997C302.722,145.997 290.978,134.157 290.978,119.573C290.978,104.989 302.722,93.149 302.722,93.149Z" style="fill:white;fill-opacity:0.670588;"/>
                    </g>
                </g>
                <g transform="matrix(0.5,-0.866025,0.866025,0.5,63.9187,310.708)">
                    <g transform="matrix(0.965926,-0.258819,0.258819,0.965926,-29.1539,37.3279)">
                        <path d="M302.722,93.149C302.722,93.149 314.466,104.989 314.466,119.573C314.466,134.157 302.722,145.997 302.722,145.997C302.722,145.997 290.978,134.157 290.978,119.573C290.978,104.989 302.722,93.149 302.722,93.149Z" style="fill:white;fill-opacity:0.670588;"/>
                    </g>
                    <g transform="matrix(-0.965926,-0.258819,-0.258819,0.965926,631.234,37.3279)">
                        <path d="M302.722,93.149C302.722,93.149 314.466,104.989 314.466,119.573C314.466,134.157 302.722,145.997 302.722,145.997C302.722,145.997 290.978,134.157 290.978,119.573C290.978,104.989 302.722,93.149 302.722,93.149Z" style="fill:white;fill-opacity:0.670588;"/>
                    </g>
                </g>
            </g>
            <g transform="matrix(-0.5,-0.866025,0.866025,-0.5,363.911,410.705)">
                <g>
                    <g transform="matrix(0.965926,-0.258819,0.258819,0.965926,-29.1539,37.3279)">
                        <path d="M302.722,93.149C302.722,93.149 314.466,104.989 314.466,119.573C314.466,134.157 302.722,145.997 302.722,145.997C302.722,145.997 290.978,134.157 290.978,119.573C290.978,104.989 302.722,93.149 302.722,93.149Z" style="fill:white;fill-opacity:0.670588;"/>
                    </g>
                    <g transform="matrix(-0.965926,-0.258819,-0.258819,0.965926,631.234,37.3279)">
                        <path d="M302.722,93.149C302.722,93.149 314.466,104.989 314.466,119.573C314.466,134.157 302.722,145.997 302.722,145.997C302.722,145.997 290.978,134.157 290.978,119.573C290.978,104.989 302.722,93.149 302.722,93.149Z" style="fill:white;fill-opacity:0.670588;"/>
                    </g>
                </g>
                <g transform="matrix(0.5,-0.866025,0.866025,0.5,63.9187,310.708)">
                    <g transform="matrix(0.965926,-0.258819,0.258819,0.965926,-29.1539,37.3279)">
                        <path d="M302.722,93.149C302.722,93.149 314.466,104.989 314.466,119.573C314.466,134.157 302.722,145.997 302.722,145.997C302.722,145.997 290.978,134.157 290.978,119.573C290.978,104.989 302.722,93.149 302.722,93.149Z" style="fill:white;fill-opacity:0.670588;"/>
                    </g>
                    <g transform="matrix(-0.965926,-0.258819,-0.258819,0.965926,631.234,37.3279)">
                        <path d="M302.722,93.149C302.722,93.149 314.466,104.989 314.466,119.573C314.466,134.157 302.722,145.997 302.722,145.997C302.722,145.997 290.978,134.157 290.978,119.573C290.978,104.989 302.722,93.149 302.722,93.149Z" style="fill:white;fill-opacity:0.670588;"/>
                    </g>
                </g>
            </g>
            <g transform="matrix(-0.258819,0.965926,-0.965926,-0.258819,519.368,-154.617)">
                <path d="M302.722,93.149C302.722,93.149 314.466,104.989 314.466,119.573C314.466,134.157 302.722,145.997 302.722,145.997C302.722,145.997 290.978,134.157 290.978,119.573C290.978,104.989 302.722,93.149 302.722,93.149Z" style="fill:white;fill-opacity:0.670588;"/>
            </g>
            <g transform="matrix(0.707107,-0.707107,-0.707107,-0.707107,189.175,417.296)">
                <path d="M302.722,93.149C302.722,93.149 314.466,104.989 314.466,119.573C314.466,134.157 302.722,145.997 302.722,145.997C302.722,145.997 290.978,134.157 290.978,119.573C290.978,104.989 302.722,93.149 302.722,93.149Z" style="fill:white;fill-opacity:0.670588;"/>
            </g>
            <g transform="matrix(0.707107,0.707107,-0.707107,0.707107,189.174,-217.288)">
                <path d="M302.722,93.149C302.722,93.149 314.466,104.989 314.466,119.573C314.466,134.157 302.722,145.997 302.722,145.997C302.722,145.997 290.978,134.157 290.978,119.573C290.978,104.989 302.722,93.149 302.722,93.149Z" style="fill:white;fill-opacity:0.670588;"/>
            </g>
            <g transform="matrix(-0.258819,-0.965926,-0.965926,0.258819,519.368,354.625)">
                <path d="M302.722,93.149C302.722,93.149 314.466,104.989 314.466,119.573C314.466,134.157 302.722,145.997 302.722,145.997C302.722,145.997 290.978,134.157 290.978,119.573C290.978,104.989 302.722,93.149 302.722,93.149Z" style="fill:white;fill-opacity:0.670588;"/>
            </g>
        </g>
    </g>
</svg>
